<svg width="164" height="141" viewBox="0 0 164 141" fill="none" xmlns="http://www.w3.org/2000/svg">
<path fill-rule="evenodd" clip-rule="evenodd" d="M107.392 72.0299C105.621 77.5487 101.528 82.0811 96.8759 85.8021C92.2148 89.534 86.8536 92.5626 82.3725 95.0136C82.1219 95.1537 81.7652 95.3557 81.3409 95.6035L81.2923 95.6315C80.2139 96.2511 78.6948 97.124 77.2113 97.8649C76.1479 98.396 75.0276 98.8994 74.0023 99.2319C73.0592 99.5367 71.8949 99.8039 70.901 99.5344C69.8605 99.2536 68.6636 99.1628 67.2687 99.0728C67.2073 99.0676 67.1502 99.0642 67.0901 99.062C65.7952 98.978 64.3461 98.8833 62.9697 98.5651C57.851 97.3841 53.6196 98.2079 49.1233 99.0884L49.0913 99.095L49.0793 99.0973C44.6185 99.9705 39.8885 100.896 34.234 99.4902C25.7811 97.3913 17.4415 93.8948 10.5358 88.3615C4.16021 83.2519 1.28324 76.0678 0.683198 68.5983C0.0846423 61.1489 1.74106 53.3372 4.5082 46.7649C9.99477 33.7298 21.4398 19.4697 35.2328 10.2651C49.0217 1.05895 65.4545 -3.2646 80.6725 4.22388C92.1022 9.84977 100.647 20.9684 105.401 33.503C110.156 46.0376 111.194 60.1877 107.392 72.0299ZM80.9943 92.5132C85.4754 90.0623 90.6344 87.1396 95.0769 83.5826C99.53 80.0176 103.123 75.9236 104.647 71.1803C108.213 60.0673 107.278 46.59 102.702 34.5277C98.1289 22.4642 89.9901 12.011 79.3774 6.78771C65.4423 -0.0677514 50.1551 3.73823 36.8265 12.6332C23.4991 21.5312 12.4291 35.3439 7.16525 47.8512C4.53875 54.0888 3.00147 61.4405 3.55391 68.3516C4.1078 75.2415 6.72896 81.6211 12.3572 86.13C18.8508 91.3379 26.7773 94.6883 34.9498 96.7162C39.9327 97.9545 44.0914 97.1648 48.5865 96.2814L48.7158 96.2579C53.1468 95.3877 57.9105 94.4565 63.6432 95.7814C64.7839 96.0441 66.0217 96.1246 67.391 96.2116L67.478 96.2197C68.8217 96.3038 70.3119 96.4052 71.6789 96.7756C71.6807 96.7748 71.6819 96.7756 71.6835 96.7767C71.6845 96.7775 71.6857 96.7783 71.6873 96.7789C71.6902 96.7777 71.6932 96.7764 71.6944 96.7793C71.6986 96.781 71.7045 96.7785 71.7087 96.7802C71.7272 96.7828 71.7557 96.7845 71.7914 96.7866C71.8688 96.7885 71.9709 96.7832 72.1027 96.7656C72.372 96.7277 72.7162 96.6446 73.1268 96.5127C73.9498 96.2448 74.9202 95.815 75.9328 95.3122C77.2848 94.6376 78.5769 93.8953 79.6122 93.3006L79.7794 93.2046C79.8458 93.1664 79.911 93.1288 79.9751 93.0919C80.3649 92.8674 80.7102 92.6685 80.9943 92.5132Z" fill="#FFFCF4" fill-opacity="0.05"/>
<path fill-rule="evenodd" clip-rule="evenodd" d="M162.477 126.521C161.52 129.407 159.354 131.738 156.99 133.607C154.62 135.485 151.907 137.003 149.685 138.213C149.578 138.271 149.418 138.362 149.219 138.477C148.684 138.783 147.868 139.249 147.1 139.63C146.557 139.902 145.963 140.17 145.407 140.351C144.929 140.505 144.169 140.707 143.458 140.522C143.024 140.409 142.507 140.371 141.804 140.331C141.785 140.329 141.765 140.328 141.744 140.328C141.73 140.328 141.716 140.328 141.702 140.327C141.074 140.292 140.304 140.246 139.564 140.083C137.207 139.562 135.255 139.94 133.022 140.387L132.971 140.398L132.957 140.401C130.766 140.838 128.29 141.331 125.348 140.629C121.106 139.62 116.894 137.907 113.395 135.156C110.076 132.542 108.616 128.857 108.333 125.077C108.053 121.319 108.927 117.394 110.356 114.101C113.168 107.601 118.968 100.508 125.933 95.8973C132.9 91.2891 141.325 88.9992 149.144 92.7469C154.979 95.546 159.266 101.097 161.615 107.302C163.967 113.507 164.457 120.557 162.477 126.521ZM148.332 135.77C150.556 134.559 153.063 133.145 155.218 131.441C157.378 129.732 159.044 127.834 159.749 125.712C161.49 120.468 161.095 114.071 158.92 108.328C156.744 102.584 152.855 97.6847 147.83 95.2743C141.287 92.1338 134.006 93.9109 127.505 98.2117C121.006 102.511 115.581 109.167 112.995 115.144C111.711 118.106 110.957 121.58 111.198 124.808C111.437 128.021 112.651 130.924 115.229 132.955C118.318 135.387 122.122 136.955 126.086 137.9C128.372 138.445 130.283 138.084 132.513 137.638L132.609 137.618H132.611C134.793 137.182 137.279 136.686 140.26 137.345C140.742 137.452 141.273 137.484 141.932 137.523C141.966 137.525 142 137.527 142.035 137.529L142.049 137.53L142.081 137.532C142.7 137.568 143.455 137.612 144.172 137.786C144.177 137.785 144.184 137.784 144.193 137.782C144.244 137.774 144.36 137.754 144.555 137.689C144.913 137.572 145.357 137.378 145.846 137.135C146.533 136.794 147.167 136.432 147.685 136.133C147.928 135.993 148.145 135.872 148.332 135.77Z" fill="#FFFCF4" fill-opacity="0.05"/>
</svg>
