<svg width="1000" height="1000" viewBox="0 0 1000 1000" fill="none" xmlns="http://www.w3.org/2000/svg">
<rect width="1000" height="1000" rx="50" fill="#0D1B30"/>
<path d="M334.721 585.361C336.045 609.182 341.339 630.357 350.604 648.885C359.869 666.751 371.781 682.301 386.34 695.535C401.561 708.108 419.098 717.703 438.951 724.32C458.804 730.937 480.312 734.245 503.474 734.245C520.019 734.245 537.556 732.922 556.086 730.275C575.277 726.967 592.814 721.342 608.697 713.401C625.241 705.461 638.808 694.543 649.396 680.647C659.985 666.089 665.279 647.892 665.279 626.056C665.279 597.602 656.676 576.097 639.469 561.539C622.263 546.981 600.425 535.732 573.954 527.792C548.144 519.851 520.019 513.565 489.577 508.933C459.797 503.639 431.672 496.03 405.2 486.104C379.391 476.178 357.883 462.283 340.677 444.416C323.471 425.888 314.868 399.089 314.868 364.019C314.868 338.874 320.493 318.03 331.743 301.487C342.993 284.283 357.222 270.717 374.428 260.792C392.296 250.866 412.149 243.918 433.988 239.948C455.826 235.316 477.665 233 499.504 233C525.975 233 550.791 235.978 573.954 241.933C597.116 247.888 616.969 257.483 633.513 270.717C650.72 283.952 663.955 300.825 673.22 321.338C683.147 341.851 688.11 366.665 688.11 395.781H650.389C650.389 372.621 646.418 352.77 638.477 336.227C631.197 319.684 620.609 306.45 606.712 296.524C593.476 285.937 577.593 278.327 559.064 273.695C540.534 268.401 520.681 265.755 499.504 265.755C482.297 265.755 464.76 267.409 446.892 270.717C429.686 274.026 414.134 279.651 400.237 287.591C386.34 295.532 374.759 305.788 365.494 318.361C356.891 330.933 352.589 346.152 352.589 364.019C352.589 384.532 357.553 401.074 367.479 413.647C377.406 426.219 390.311 436.476 406.193 444.416C422.738 451.695 440.936 457.651 460.79 462.283C481.305 466.914 501.82 471.546 522.335 476.178C547.483 480.81 570.976 486.435 592.814 493.052C615.315 499.007 634.506 507.61 650.389 518.859C666.933 529.446 679.838 543.342 689.103 560.546C698.368 577.751 703 599.587 703 626.056C703 653.848 696.713 676.677 684.139 694.543C671.566 712.409 655.683 726.966 636.491 738.216C617.3 748.803 595.792 756.082 571.968 760.052C548.806 764.684 525.975 767 503.474 767C474.356 767 447.223 763.03 422.076 755.089C397.59 747.81 376.082 736.561 357.553 721.342C339.023 705.461 324.464 686.271 313.875 663.773C303.287 641.275 297.662 615.138 297 585.361H334.721Z" fill="#F7C626"/>
</svg>
